# xmcd
#
# Track frame offsets:
#	150
#	21238
#	43522
#	63963
#	84733
#	100609
#	120927
#	136252
#	156667
#	177560
#	195366
#	211529
#	230093
#	248537
#
# Disc length: 3548 seconds
#
# Revision: 2
# Processed by: cddbd v1.5.2PL0 Copyright (c) Steve Scherf et al.
# Submitted via: EasyCDDAExtractor 16.0.9.1
#
DISCID=b10dda0e
DTITLE=Daniel - Em Foco
DYEAR=2007
DGENRE=Sertanejo
TTITLE0=Daniel - Adoro Amar Você
TTITLE1=Daniel - Estou Apaixonado (Estoy Enomorado) (Ao Vivo)
TTITLE2=Daniel - Os Amantes
TTITLE3=Daniel - Um Homem Apaixonado
TTITLE4=Daniel - Amor Absoluto
TTITLE5=Daniel - Que Era Eu
TTITLE6=Daniel - A Primeira Letra
TTITLE7=Daniel - Seus Beijos
TTITLE8=Daniel - Evidências (Ao Vivo)
TTITLE9=Daniel - Quando O Coração Se Apaixona
TTITLE10=Daniel - Eu Sem Você (Ao Vivo)
TTITLE11=Daniel - Vida Minha
TTITLE12=Daniel - Desatino
TTITLE13=Daniel and Almir Sater - Tocando Em Frente
EXTD=
EXTT0=
EXTT1=
EXTT2=
EXTT3=
EXTT4=
EXTT5=
EXTT6=
EXTT7=
EXTT8=
EXTT9=
EXTT10=
EXTT11=
EXTT12=
EXTT13=
PLAYORDER=
